#!OML:ASF X:\für Bonn\!DataBase\2005_08_12_Daniel\c3d\Daniel.ASF
:FULLY-SPECIFIED
:DEGREES
18
root -3.91615 16.9658 -0.432246 393.633 -85.3094 -405.984
lowerback 19.8457 -12.622 0.7909
upperback 4.42409 -16.66 1.53467
thorax -5.63827 -8.31089 5.19137
lowerneck 7.73877 10.0165 2.22823
upperneck 8.74454 13.4568 -7.6743
head 2.25881 6.50511 -2.86411
rclavicle 1.635e-014 -8.34896e-015
rhumerus -47.1952 26.788 -76.0564
rradius 74.5241
rwrist -0.379309
rhand -38.0364 42.474
rfingers 7.12502
rthumb -11.0744 12.7862
lclavicle 1.635e-014 -8.34896e-015
lhumerus 21.0678 0.282217 73.662
lradius 111.546
lwrist 29.5934
lhand -18.4459 -11.6266
lfingers 7.12502
lthumb 7.83995 18.208
rfemur -13.3962 0.242338 19.47
rtibia 50.909
rfoot -9.12336 -0.202313
rtoes -9.8633
lfemur -6.90326 -7.80943 -20.2783
ltibia 42.8942
lfoot -25.8162 -2.55663
ltoes 5.62361
19
root -3.89959 16.993 -0.393522 393.019 -85.2703 -405.663
lowerback 20.503 -12.9833 0.357829
upperback 4.66558 -17.2316 1.55131
thorax -5.54211 -8.60444 5.65314
lowerneck 7.65306 10.2488 1.9088
upperneck 8.77302 13.7362 -7.62171
head 2.27104 6.62843 -2.78394
rclavicle 1.14748e-013 -3.53837e-014
rhumerus -48.0075 25.5795 -76.0974
rradius 72.4902
rwrist 0.832427
rhand -38.2724 43.1651
rfingers 7.12502
rthumb -11.302 13.4896
lclavicle 1.14748e-013 -3.53837e-014
lhumerus 22.1663 0.648795 73.6782
lradius 112.087
lwrist 29.0663
lhand -18.3238 -11.7641
lfingers 7.12502
lthumb 7.95781 18.0661
rfemur -15.4565 -0.297904 19.1618
rtibia 54.0927
rfoot -7.60101 -0.307926
rtoes -10.1786
lfemur -6.19363 -8.01741 -20.5387
ltibia 42.1207
lfoot -25.547 -2.18965
ltoes 5.6375
20
root -3.88246 17.0228 -0.355472 393.268 -85.1757 -406.246
lowerback 21.23 -13.3594 0.00742464
upperback 4.91769 -17.8101 1.56856
thorax -5.47851 -8.90325 6.09598
lowerneck 7.6141 10.5035 1.58679
upperneck 8.77477 14.0414 -7.54472
head 2.26445 6.76667 -2.69883
rclavicle 2.98177e-016 -1.78906e-014
rhumerus -48.7518 24.3084 -76.0665
rradius 70.4365
rwrist 2.09985
rhand -38.2046 43.7017
rfingers 7.12502
rthumb -11.2366 14.0226
lclavicle 2.98177e-016 -1.78906e-014
lhumerus 23.2341 1.00196 73.6985
lradius 112.609
lwrist 28.4853
lhand -18.1896 -12.0294
lfingers 7.12502
lthumb 8.08735 17.7959
rfemur -17.6172 -0.819234 18.9695
rtibia 57.2898
rfoot -6.11312 -0.211961
rtoes -11.2254
lfemur -5.45866 -8.26332 -20.7089
ltibia 41.3856
lfoot -25.2983 -1.8019
ltoes 5.6859
21
root -3.86351 17.0506 -0.317507 394.139 -85.0286 -407.484
lowerback 21.9946 -13.7341 -0.239592
upperback 5.20475 -18.3707 1.56212
thorax -5.42251 -9.19647 6.47096
lowerneck 7.63591 10.7334 1.3594
upperneck 8.6973 14.3191 -7.52523
head 2.23106 6.89821 -2.65456
rclavicle 9.56651e-014 -2.38542e-014
rhumerus -49.4713 22.9526 -75.9677
rradius 68.4401
rwrist 3.5313
rhand -37.9781 43.9067
rfingers 7.12502
rthumb -11.0181 14.2158
lclavicle 9.56651e-014 -2.38542e-014
lhumerus 24.4019 1.32079 73.715
lradius 113.104
lwrist 27.98
lhand -17.9195 -12.2803
lfingers 7.12502
lthumb 8.34806 17.5347
rfemur -19.8076 -1.3213 18.8752
rtibia 60.4755
rfoot -4.86332 0.217417
rtoes -11.827
lfemur -4.73793 -8.52333 -20.7982
ltibia 40.7251
lfoot -25.0642 -1.41888
ltoes 5.69009
22
root -3.84326 17.0746 -0.281164 396.069 -84.8098 -409.818
lowerback 22.815 -14.1148 -0.398803
upperback 5.51895 -18.9239 1.59013
thorax -5.36735 -9.49099 6.85246
lowerneck 7.7551 10.9782 1.07026
upperneck 8.46328 14.6029 -7.51002
head 2.12386 7.03945 -2.61208
rclavicle -1.16388e-013 7.91163e-014
rhumerus -50.1079 21.6976 -75.7678
rradius 66.4782
rwrist 4.95427
rhand -37.6024 43.9366
rfingers 7.12502
rthumb -10.6557 14.2268
lclavicle -1.16388e-013 7.91163e-014
lhumerus 25.6124 1.6403 73.7027
lradius 113.585
lwrist 27.5194
lhand -17.6596 -12.6501
lfingers 7.12502
lthumb 8.59884 17.1548
rfemur -22.0015 -1.82251 18.9448
rtibia 63.6387
rfoot -4.00775 1.00556
rtoes -11.7909
lfemur -4.03997 -8.77154 -20.7507
ltibia 40.1633
lfoot -24.8519 -1.04714
ltoes 5.66111
23
root -3.82237 17.0949 -0.245035 398.328 -84.5299 -412.519
lowerback 23.6909 -14.5067 -0.449561
upperback 5.84354 -19.4686 1.58842
thorax -5.36147 -9.78019 7.17352
lowerneck 7.99313 11.2075 0.859569
upperneck 8.14157 14.8634 -7.50071
head 1.97297 7.178 -2.59554
rclavicle 5.60076e-014 -1.98785e-014
rhumerus -50.775 20.4476 -75.5568
rradius 64.6129
rwrist 6.42738
rhand -37.2297 43.8975
rfingers 7.12502
rthumb -10.2963 14.1696
lclavicle 5.60076e-014 -1.98785e-014
lhumerus 26.8193 1.89733 73.6482
lradius 114.087
lwrist 27.2318
lhand -17.3611 -13.1208
lfingers 7.12502
lthumb 8.88687 16.6721
rfemur -24.202 -2.32736 19.1169
rtibia 66.769
rfoot -3.47383 1.99434
rtoes -11.0341
lfemur -3.34791 -9.05725 -20.6315
ltibia 39.6864
lfoot -24.6773 -0.670937
ltoes 5.77179
24
root -3.8009 17.1137 -0.209805 400.807 -84.2179 -415.451
lowerback 24.5889 -14.8827 -0.470829
upperback 6.19548 -19.9884 1.59106
thorax -5.33552 -10.062 7.48654
lowerneck 8.18803 11.4409 0.690592
upperneck 7.81169 15.1353 -7.50565
head 1.83226 7.32417 -2.5893
rclavicle -7.99114e-014 1.51076e-014
rhumerus -51.3928 19.6233 -75.4161
rradius 62.8113
rwrist 7.55086
rhand -37.0729 43.7898
rfingers 7.12502
rthumb -10.145 14.0544
lclavicle -7.99114e-014 1.51076e-014
lhumerus 28.1093 2.12071 73.5486
lradius 114.605
lwrist 27.0486
lhand -17.0223 -13.517
lfingers 7.12502
lthumb 9.21385 16.2617
rfemur -26.4609 -2.8499 19.3683
rtibia 69.8917
rfoot -3.19056 3.06176
rtoes -10.5126
lfemur -2.6693 -9.3704 -20.4698
ltibia 39.2651
lfoot -24.5442 -0.303854
ltoes 5.83856
25
root -3.77889 17.1353 -0.174572 403.215 -83.854 -418.377
lowerback 25.5486 -15.2691 -0.427667
upperback 6.57658 -20.5083 1.54522
thorax -5.3352 -10.3438 7.74221
lowerneck 8.46395 11.6668 0.593404
upperneck 7.43125 15.3973 -7.53576
head 1.66953 7.47106 -2.61102
rclavicle 1.5048e-013 -3.43897e-014
rhumerus -52.0631 18.8675 -75.3448
rradius 61.1705
rwrist 8.6323
rhand -37.1366 43.6245
rfingers 7.12502
rthumb -10.2064 13.8921
lclavicle 1.5048e-013 -3.43897e-014
lhumerus 29.4151 2.29601 73.3517
lradius 115.104
lwrist 27.0313
lhand -16.6839 -13.8951
lfingers 7.12502
lthumb 9.54035 15.8689
rfemur -28.6995 -3.36995 19.7013
rtibia 72.9881
rfoot -3.10348 4.14095
rtoes -10.2569
lfemur -1.92252 -9.66507 -20.2633
ltibia 38.8503
lfoot -24.42 0.0774271
ltoes 5.7911
26
root -3.75717 17.1548 -0.139728 405.252 -83.4895 -421.01
lowerback 26.5982 -15.628 -0.416321
upperback 6.97842 -21.0019 1.48466
thorax -5.34126 -10.6151 8.01756
lowerneck 8.7194 11.8731 0.495859
upperneck 7.04106 15.6343 -7.60288
head 1.50969 7.60559 -2.64542
rclavicle 5.32246e-014 2.37548e-014
rhumerus -52.7651 18.2202 -75.282
rradius 59.7441
rwrist 9.50966
rhand -37.3186 43.4917
rfingers 7.12502
rthumb -10.382 13.768
lclavicle 5.32246e-014 2.37548e-014
lhumerus 30.868 2.46694 73.3696
lradius 115.626
lwrist 27.1031
lhand -16.1952 -14.1214
lfingers 7.12502
lthumb 10.0118 15.6204
rfemur -30.9279 -3.91862 20.0353
rtibia 76.0791
rfoot -3.11685 5.29159
rtoes -10.2452
lfemur -1.07584 -9.94606 -20.0761
ltibia 38.4166
lfoot -24.2872 0.414512
ltoes 5.84469
27
root -3.73544 17.1748 -0.10558 407.144 -83.1115 -423.572
lowerback 27.7248 -15.9777 -0.408966
upperback 7.40964 -21.4876 1.38839
thorax -5.35134 -10.885 8.27925
lowerneck 9.01468 12.0817 0.445164
upperneck 6.59133 15.8753 -7.7053
head 1.33177 7.74698 -2.70488
rclavicle 6.26172e-014 -6.72886e-014
rhumerus -53.4523 17.6811 -75.3015
rradius 58.482
rwrist 10.2341
rhand -37.6353 43.2459
rfingers 7.12502
rthumb -10.6875 13.5377
lclavicle 6.26172e-014 -6.72886e-014
lhumerus 32.3272 2.65477 73.3855
lradius 116.205
lwrist 27.3272
lhand -15.6882 -14.1874
lfingers 7.12502
lthumb 10.5009 15.5304
rfemur -33.1063 -4.45976 20.4113
rtibia 79.1147
rfoot -3.24426 6.38004
rtoes -10.1882
lfemur -0.125854 -10.251 -19.904
ltibia 37.9497
lfoot -24.1532 0.830045
ltoes 5.86147
28
root -3.71267 17.1924 -0.0719665 408.656 -82.7644 -425.778
lowerback 28.8832 -16.3024 -0.451812
upperback 7.85293 -21.9571 1.25479
thorax -5.34945 -11.1492 8.53193
lowerneck 9.28209 12.2714 0.439577
upperneck 6.14878 16.0974 -7.83497
head 1.1667 7.87977 -2.77974
rclavicle 1.31793e-013 -1.15379e-013
rhumerus -54.1045 17.1775 -75.3917
rradius 57.3234
rwrist 10.8069
rhand -38.0071 42.8599
rfingers 7.12502
rthumb -11.0461 13.1706
lclavicle 1.31793e-013 -1.15379e-013
lhumerus 33.7377 2.79371 73.3986
lradius 116.882
lwrist 27.6931
lhand -15.2568 -14.1263
lfingers 7.12502
lthumb 10.9171 15.5698
rfemur -35.3213 -5.00565 20.7507
rtibia 82.1197
rfoot -3.445 7.32008
rtoes -10.2367
lfemur 0.878573 -10.6135 -19.8097
ltibia 37.4507
lfoot -24.0414 1.27233
ltoes 5.93153
29
root -3.68701 17.2091 -0.0397044 409.869 -82.4482 -427.759
lowerback 30.1054 -16.5972 -0.543311
upperback 8.35998 -22.4114 1.05174
thorax -5.30383 -11.4131 8.73997
lowerneck 9.47724 12.4595 0.483385
upperneck 5.70788 16.3275 -7.91978
head 1.0148 8.01821 -2.84408
rclavicle -5.21313e-014 -3.30976e-014
rhumerus -54.6886 16.7272 -75.5997
rradius 56.2433
rwrist 11.2618
rhand -38.3473 42.2161
rfingers 7.12502
rthumb -11.3742 12.5446
lclavicle -5.21313e-014 -3.30976e-014
lhumerus 35.166 2.88119 73.391
lradius 117.581
lwrist 28.1094
lhand -14.8778 -13.9884
lfingers 7.12502
lthumb 11.2826 15.6882
rfemur -37.5154 -5.55626 21.0698
rtibia 85.061
rfoot -3.73246 8.08393
rtoes -10.587
lfemur 1.97614 -11.0012 -19.7946
ltibia 36.9181
lfoot -23.9282 1.80915
ltoes 5.95498
30
root -3.66025 17.2225 -0.00802367 410.66 -82.1768 -429.339
lowerback 31.3028 -16.8686 -0.718754
upperback 8.93937 -22.875 0.784462
thorax -5.14674 -11.6961 8.89819
lowerneck 9.6563 12.6373 0.648119
upperneck 5.18492 16.5589 -8.07759
head 0.856421 8.16424 -2.95369
rclavicle -1.17184e-013 1.20662e-013
rhumerus -55.2033 16.2877 -75.9118
rradius 55.1951
rwrist 11.6638
rhand -38.6172 41.5855
rfingers 7.12502
rthumb -11.6345 11.9285
lclavicle -1.17184e-013 1.20662e-013
lhumerus 36.6459 2.95607 73.3438
lradius 118.269
lwrist 28.4931
lhand -14.5964 -13.8583
lfingers 7.12502
lthumb 11.554 15.8032
rfemur -39.769 -6.13714 21.3289
rtibia 87.965
rfoot -3.99097 8.72415
rtoes -10.8463
lfemur 3.12235 -11.4557 -19.8887
ltibia 36.3521
lfoot -23.8394 2.38258
ltoes 6.05685
